<svg width="135" height="14" viewBox="0 0 135 14" fill="none" xmlns="http://www.w3.org/2000/svg">
<path fill-rule="evenodd" clip-rule="evenodd" d="M43.1152 2.03307C43.1152 1.40002 42.6376 0.886841 42.0485 0.886841H40.9818C40.3927 0.886841 39.9152 1.40002 39.9152 2.03307V11.967C39.9152 12.6001 40.3927 13.1133 40.9818 13.1133H42.0485C42.6376 13.1133 43.1152 12.6001 43.1152 11.967V2.03307ZM35.681 3.33212H36.7477C37.3368 3.33212 37.8144 3.85762 37.8144 4.50586V11.9395C37.8144 12.5878 37.3368 13.1133 36.7477 13.1133H35.681C35.0919 13.1133 34.6144 12.5878 34.6144 11.9395V4.50586C34.6144 3.85762 35.0919 3.33212 35.681 3.33212ZM31.3493 5.98117H30.2826C29.6935 5.98117 29.2159 6.51336 29.2159 7.16985V11.9246C29.2159 12.5811 29.6935 13.1132 30.2826 13.1132H31.3493C31.9384 13.1132 32.4159 12.5811 32.4159 11.9246V7.16985C32.4159 6.51336 31.9384 5.98117 31.3493 5.98117ZM26.0485 8.42646H24.9818C24.3927 8.42646 23.9152 8.95105 23.9152 9.59816V11.9416C23.9152 12.5887 24.3927 13.1133 24.9818 13.1133H26.0485C26.6376 13.1133 27.1152 12.5887 27.1152 11.9416V9.59816C27.1152 8.95105 26.6376 8.42646 26.0485 8.42646Z" fill="black"/>
<path fill-rule="evenodd" clip-rule="evenodd" d="M58.6864 3.3021C61.1735 3.3022 63.5655 4.22428 65.368 5.87776C65.5038 6.00542 65.7207 6.00381 65.8544 5.87415L67.1519 4.61069C67.2196 4.54493 67.2573 4.45585 67.2568 4.36317C67.2562 4.27049 67.2174 4.18184 67.1489 4.11685C62.4179 -0.257863 54.9542 -0.257863 50.2232 4.11685C50.1546 4.1818 50.1158 4.27041 50.1151 4.3631C50.1145 4.45578 50.1522 4.54488 50.2198 4.61069L51.5177 5.87415C51.6513 6.004 51.8684 6.00562 52.004 5.87776C53.8068 4.22418 56.1991 3.30209 58.6864 3.3021ZM58.6831 7.52237C60.0404 7.52229 61.3493 8.03403 62.3554 8.95816C62.4915 9.08931 62.7058 9.08647 62.8385 8.95175L64.1258 7.63244C64.1936 7.56324 64.2312 7.46936 64.2302 7.37181C64.2292 7.27426 64.1897 7.18118 64.1206 7.11339C61.0567 4.22254 56.312 4.22254 53.2482 7.11339C53.179 7.18118 53.1395 7.27431 53.1386 7.37189C53.1377 7.46947 53.1754 7.56334 53.2433 7.63244L54.5302 8.95175C54.6629 9.08647 54.8773 9.08931 55.0133 8.95816C56.0188 8.03464 57.3266 7.52294 58.6831 7.52237ZM61.2075 10.3159C61.2094 10.4213 61.1723 10.5228 61.105 10.5967L58.9284 13.0514C58.8646 13.1235 58.7776 13.1641 58.6868 13.1641C58.596 13.1641 58.5091 13.1235 58.4452 13.0514L56.2682 10.5967C56.201 10.5228 56.164 10.4212 56.166 10.3158C56.168 10.2105 56.2088 10.1107 56.2788 10.0401C57.6689 8.72621 59.7048 8.72621 61.0949 10.0401C61.1648 10.1108 61.2056 10.2106 61.2075 10.3159Z" fill="black"/>
<rect opacity="0.35" x="74.7568" y="1" width="24" height="12" rx="3.8" stroke="black"/>
<path opacity="0.4" d="M100.257 5.28113V9.3566C101.062 9.01143 101.585 8.20847 101.585 7.31886C101.585 6.42926 101.062 5.6263 100.257 5.28113Z" fill="black"/>
<rect x="76.2568" y="2.5" width="21" height="9" rx="2.5" fill="black"/>
</svg>
